<svg width="57" height="57" viewBox="0 0 57 57" fill="none" xmlns="http://www.w3.org/2000/svg">
<path d="M14.8438 4.75C11.8925 4.75 9.5 7.14248 9.5 10.0938V46.9062C9.5 49.8574 11.8925 52.25 14.8438 52.25H32.6572C35.5917 52.25 37.9739 49.8847 38.001 46.9566L38.0014 46.9065V43.344C38.0014 42.3603 37.2041 41.5627 36.2202 41.5627C35.1424 41.5627 34.4643 41.2727 33.9953 40.8958C33.5013 40.4985 33.094 39.8857 32.7817 39.0215C32.1342 37.2284 32.0642 34.864 32.0639 32.6562C32.0639 32.2052 31.8927 31.7709 31.5849 31.4412C31.4037 31.2469 31.2821 31.1154 31.1944 31.0208C30.9797 30.7888 30.9695 30.7779 30.7895 30.6083C30.614 30.4432 30.0779 29.9314 27.9799 27.8343C26.8672 26.7221 26.2502 25.7809 26.0483 25.0619C25.9559 24.7325 25.9606 24.4867 26.0112 24.2889C26.0616 24.0927 26.1851 23.835 26.4974 23.5226C26.8095 23.2103 27.0667 23.0875 27.2617 23.0376C27.4581 22.9872 27.7032 22.9825 28.0319 23.0753C28.7503 23.2779 29.6908 23.8961 30.804 25.0099C32.0855 26.2922 33.3034 27.4966 34.3943 28.5755C36.1981 30.3591 37.6566 31.8015 38.4807 32.6845C39.1519 33.4037 40.279 33.4424 40.9982 32.7712C41.7174 32.1 41.7563 30.9729 41.0851 30.2537C40.4092 29.5296 39.3231 28.4428 38.0005 27.132L38.0002 19.1432L44.7486 25.8915C45.7506 26.8936 46.3137 28.2528 46.3137 29.6699V50.4688C46.3137 51.4525 47.1112 52.25 48.0949 52.25C49.0787 52.25 49.8762 51.4525 49.8762 50.4688V29.6699C49.8762 27.308 48.9378 25.0427 47.2675 23.3724L38.0002 14.105L38 10.0936C38 7.14238 35.6077 4.75 32.6562 4.75H14.8438ZM29.431 40.2315C29.6609 40.8683 29.9575 41.5003 30.3425 42.0893C28.5506 42.9519 27.3142 44.7849 27.3142 46.9067V48.6875H20.189V46.9067C20.189 43.9553 17.7966 41.563 14.8453 41.563H13.0625V15.4367H14.8453C17.7966 15.4367 20.189 13.0442 20.189 10.093V8.3125H27.3142V10.093C27.3142 13.0442 29.7065 15.4367 32.6579 15.4367H34.4377L34.438 23.603C34.071 23.2379 33.6989 22.867 33.3239 22.4917C32.0625 21.2296 30.5966 20.0971 28.9988 19.6465C28.1694 19.4126 27.2788 19.3557 26.3777 19.5864C25.8412 19.7239 25.3398 19.9533 24.8757 20.2627C24.5079 20.213 24.1326 20.1873 23.7512 20.1873C19.1602 20.1873 15.4386 23.9089 15.4386 28.4998C15.4386 33.0906 19.1602 36.8123 23.7512 36.8123C25.5419 36.8123 27.2006 36.2458 28.5577 35.2825C28.6453 36.9075 28.8677 38.6719 29.431 40.2315ZM19.0011 28.4998C19.0011 26.325 20.4628 24.4912 22.4575 23.9281C22.358 24.6487 22.4308 25.3564 22.6184 26.0248C23.0674 27.6241 24.1984 29.0916 25.4614 30.3539C26.1305 31.0227 26.6442 31.5336 27.0406 31.9264C26.1872 32.746 25.028 33.2498 23.7512 33.2498C21.1277 33.2498 19.0011 31.1232 19.0011 28.4998ZM13.0625 10.0938C13.0625 9.11 13.86 8.3125 14.8438 8.3125H16.6265V10.093C16.6265 11.0767 15.8291 11.8742 14.8453 11.8742H13.0625V10.0938ZM30.8767 8.3125H32.6562C33.64 8.3125 34.4375 9.10995 34.4375 10.0937L34.4377 11.8742H32.6579C31.674 11.8742 30.8767 11.0767 30.8767 10.093V8.3125ZM34.4384 45.1255V46.9062C34.4387 47.89 33.6412 48.6875 32.6572 48.6875H30.8767V46.9067C30.8767 45.9228 31.674 45.1255 32.6579 45.1255H34.4384ZM16.6265 48.6875H14.8438C13.86 48.6875 13.0625 47.89 13.0625 46.9062V45.1255H14.8453C15.8291 45.1255 16.6265 45.9228 16.6265 46.9067V48.6875Z" fill="#FFFDFD"/>
</svg>
