<svg width="57" height="57" viewBox="0 0 57 57" fill="none" xmlns="http://www.w3.org/2000/svg">
<path d="M31.0109 17.6481C33.3296 15.3293 37.089 15.3293 39.4077 17.6481C41.7264 19.9668 41.7264 23.7262 39.4077 26.045C37.089 28.3637 33.3296 28.3637 31.0109 26.045C28.6921 23.7262 28.6921 19.9668 31.0109 17.6481ZM36.8885 20.1671C35.9611 19.2397 34.4575 19.2396 33.5298 20.1671C32.6023 21.0946 32.6023 22.5984 33.5298 23.5259C34.4575 24.4535 35.9611 24.4535 36.8885 23.5259C37.8162 22.5984 37.8162 21.0946 36.8885 20.1671ZM51.0829 10.2651C50.4445 8.21123 48.8359 6.60326 46.7818 5.96576L45.2093 5.47777C39.5248 3.71355 33.3308 5.24405 29.1218 9.45281L26.7568 11.818C23.5035 9.375 18.865 9.6335 15.905 12.5935L12.954 15.5445C12.2584 16.2401 12.2584 17.368 12.954 18.0636L16.7326 21.8421L16.3055 22.2692C14.6824 23.8923 14.6824 26.524 16.3055 28.1471L17.482 29.3234L14.1675 31.2139C13.685 31.4889 13.3585 31.9734 13.2846 32.524C13.2107 33.0745 13.3977 33.6279 13.7905 34.0207L23.0271 43.2573C23.4195 43.6497 23.9725 43.8368 24.5226 43.7634C25.0729 43.6898 25.5571 43.3639 25.8329 42.8823L27.7279 39.5694L28.9087 40.75C30.5318 42.3733 33.1633 42.3733 34.7864 40.75L35.2063 40.3303L38.9816 44.1057C39.6772 44.8011 40.8051 44.8011 41.5008 44.1057L44.4517 41.1545C47.4105 38.1957 47.6701 33.5595 45.23 30.3067L47.6 27.9364C51.8104 23.7261 53.3404 17.529 51.5731 11.8429L51.0829 10.2651ZM45.7259 9.36816C46.6595 9.65794 47.3908 10.3888 47.681 11.3224L48.1712 12.9002C49.5456 17.3227 48.3557 22.1427 45.0811 25.4175L32.2675 38.2311C32.0354 38.4629 31.6595 38.4629 31.4277 38.2311L18.8246 25.6279C18.5927 25.3961 18.5927 25.0201 18.8246 24.7883L31.6409 11.9719C34.9144 8.69841 39.7321 7.50802 44.1534 8.88017L45.7259 9.36816ZM42.6647 32.8719C43.7394 34.6904 43.4955 37.0726 41.9325 38.6355L40.2411 40.327L37.7255 37.8112L42.6647 32.8719ZM18.4241 15.1126C19.9881 13.5486 22.3726 13.3054 24.1918 14.3829L19.2516 19.3231L16.7326 16.8041L18.4241 15.1126ZM25.1171 36.9586L23.898 39.0899L17.96 33.1522L20.0936 31.9352L25.1171 36.9586ZM15.8884 43.6862C16.5841 42.9906 16.5841 41.8627 15.8884 41.1671C15.1928 40.4714 14.065 40.4714 13.3694 41.1671L7.49154 47.0449C6.79592 47.7406 6.79592 48.8685 7.49154 49.5641C8.18718 50.2598 9.31499 50.2598 10.0106 49.5641L15.8884 43.6862ZM11.2701 36.5489C11.9657 37.2445 11.9657 38.3724 11.2701 39.068L8.751 41.587C8.05536 42.2826 6.92755 42.2826 6.23193 41.587C5.5363 40.8913 5.5363 39.7634 6.23193 39.068L8.751 36.5489C9.44661 35.8532 10.5744 35.8532 11.2701 36.5489ZM20.5019 48.3094C21.1975 47.6138 21.1975 46.4861 20.5019 45.7905C19.8063 45.0948 18.6785 45.0948 17.9829 45.7905L15.4687 48.3044C14.7731 49 14.7731 50.1279 15.4687 50.8236C16.1643 51.5192 17.2921 51.5192 17.9877 50.8236L20.5019 48.3094Z" fill="#FFFDFD"/>
</svg>
