<svg width="57" height="57" viewBox="0 0 57 57" fill="none" xmlns="http://www.w3.org/2000/svg">
<path d="M14.25 9.5C14.25 7.53255 15.845 5.9375 17.8127 5.9375C19.7803 5.9375 21.3753 7.53255 21.3753 9.5C21.3753 11.4675 19.7803 13.0625 17.8127 13.0625C15.845 13.0625 14.25 11.4675 14.25 9.5ZM17.8127 2.375C13.8776 2.375 10.6875 5.56491 10.6875 9.5C10.6875 13.4351 13.8776 16.625 17.8127 16.625C21.7477 16.625 24.9377 13.4351 24.9377 9.5C24.9377 5.56491 21.7477 2.375 17.8127 2.375ZM4.75 23.1986C4.75 20.8798 6.62979 19 8.94862 19H20.271C19.6505 20.0725 19.2337 21.2777 19.0735 22.5625H8.94862C8.59731 22.5625 8.3125 22.8473 8.3125 23.1986V24.0469C8.3125 24.3839 8.31868 26.4207 9.46829 28.3342C10.3922 29.8718 12.1922 31.5628 16.0014 31.9704C14.8589 32.7301 13.9676 33.8373 13.4788 35.1414C9.91933 34.2715 7.71322 32.3304 6.41454 30.1689C4.74986 27.398 4.74998 24.5468 4.75 24.0521V23.1986ZM37.9268 22.5625C37.7665 21.2777 37.35 20.0725 36.7294 19H48.0515C50.3702 19 52.25 20.8798 52.25 23.1986V24.0521C52.25 24.4991 52.2502 26.8677 51.024 29.3633C50.0831 28.6325 49.0556 28.0084 47.9591 27.5084C48.683 25.8714 48.6875 24.3354 48.6875 24.0469V23.1986C48.6875 22.8473 48.4027 22.5625 48.0515 22.5625H37.9268ZM34.2444 27.9663C35.1125 26.7857 35.6252 25.3277 35.6252 23.75C35.6252 19.8149 32.4351 16.625 28.5002 16.625C24.5651 16.625 21.375 19.8149 21.375 23.75C21.375 27.6851 24.5651 30.875 28.5002 30.875C29.3047 30.875 30.0779 30.7418 30.7992 30.4959C32.1915 30.0217 33.3899 29.1284 34.2444 27.9663ZM28.5518 33.25H19.6361C17.3173 33.25 15.4375 35.1298 15.4375 37.4485V38.3021C15.4375 38.7968 15.4374 41.648 17.102 44.4189C18.8628 47.3497 22.2917 49.875 28.5 49.875H28.5518C27.8333 48.7528 27.2562 47.5316 26.8451 46.2363C22.9287 45.8586 21.0922 44.1427 20.1558 42.5842C19.0062 40.6707 19 38.6339 19 38.2969V37.4485C19 37.0973 19.2848 36.8125 19.6361 36.8125H26.8696C27.2788 35.5454 27.8476 34.3501 28.5518 33.25ZM39.1877 5.9375C37.22 5.9375 35.625 7.53255 35.625 9.5C35.625 11.4675 37.22 13.0625 39.1877 13.0625C41.1554 13.0625 42.7502 11.4675 42.7502 9.5C42.7502 7.53255 41.1554 5.9375 39.1877 5.9375ZM32.0625 9.5C32.0625 5.56491 35.2526 2.375 39.1877 2.375C43.1226 2.375 46.3127 5.56491 46.3127 9.5C46.3127 13.4351 43.1226 16.625 39.1877 16.625C35.2526 16.625 32.0625 13.4351 32.0625 9.5ZM24.9375 23.75C24.9375 21.7826 26.5326 20.1875 28.5002 20.1875C30.4679 20.1875 32.0627 21.7826 32.0627 23.75C32.0627 25.7174 30.4679 27.3125 28.5002 27.3125C26.5326 27.3125 24.9375 25.7174 24.9375 23.75ZM41.5625 28.5C48.7768 28.5 54.625 34.3482 54.625 41.5625C54.625 48.7768 48.7768 54.625 41.5625 54.625C34.3482 54.625 28.5 48.7768 28.5 41.5625C28.5 34.3482 34.3482 28.5 41.5625 28.5ZM42.7526 48.6958L42.7514 42.75H48.6794C49.3347 42.75 49.8657 42.2185 49.8657 41.5625C49.8657 40.9068 49.3347 40.375 48.6794 40.375H42.7512L42.75 34.4358C42.75 33.7799 42.2182 33.2483 41.5625 33.2483C40.9068 33.2483 40.375 33.7799 40.375 34.4358L40.3762 40.375H34.427C33.7718 40.375 33.2407 40.9068 33.2407 41.5625C33.2407 42.2185 33.7718 42.75 34.427 42.75H40.3764L40.3776 48.6958C40.3776 49.3518 40.9094 49.8833 41.5651 49.8833C42.2211 49.8833 42.7526 49.3518 42.7526 48.6958Z" fill="#FFFDFD"/>
</svg>
