<svg width="57" height="57" viewBox="0 0 57 57" fill="none" xmlns="http://www.w3.org/2000/svg">
<path d="M30.875 14.8658C30.875 16.1766 29.8117 17.2392 28.5 17.2392C27.1883 17.2392 26.125 16.1766 26.125 14.8658C26.125 13.555 27.1883 12.4923 28.5 12.4923C29.8117 12.4923 30.875 13.555 30.875 14.8658ZM30.9501 5.54836C29.4904 4.48388 27.5096 4.48388 26.0499 5.54836L8.4231 18.4029C6.10254 20.0951 7.30032 23.7661 10.1731 23.7661H10.6875V37.5319C8.57275 38.6123 7.125 40.8108 7.125 43.3473V46.9074C7.125 47.8904 7.9225 48.6875 8.90625 48.6875H26.125V45.1274H10.6875V43.3473C10.6875 41.7088 12.0166 40.3805 13.6562 40.3805H26.125V39.1875C26.125 38.346 26.3 37.5454 26.6157 36.8203H22.5625V23.7661H26.7188V36.5964C27.427 35.1386 28.714 34.014 30.2812 33.5219V23.7661H34.4375V27.431C35.3281 26.9755 36.3373 26.7188 37.4062 26.7188H38V23.7661H42.75V26.7188H45.7188C45.919 26.7188 46.117 26.7278 46.3125 26.7453V23.7661H46.8269C49.6997 23.7661 50.8974 20.0952 48.5768 18.4029L30.9501 5.54836ZM28.1499 8.42422C28.3584 8.27217 28.6416 8.27217 28.8501 8.42422L45.006 20.2061H11.994L28.1499 8.42422ZM14.25 36.8203V23.7661H19V36.8203H14.25ZM33.25 35.625H32.0625C30.0951 35.625 28.5 37.2201 28.5 39.1875V42.75H34.4375V42.1562C34.4375 41.1725 35.235 40.375 36.2188 40.375C37.2025 40.375 38 41.1725 38 42.1562V42.75H45.125V42.1562C45.125 41.1725 45.9225 40.375 46.9062 40.375C47.89 40.375 48.6875 41.1725 48.6875 42.1562V42.75H54.625V39.1875C54.625 37.2201 53.0299 35.625 51.0625 35.625H49.875V33.25C49.875 30.9546 48.0142 29.0938 45.7188 29.0938H37.4062C35.1108 29.0938 33.25 30.9546 33.25 33.25V35.625ZM36.8125 33.25C36.8125 32.922 37.0783 32.6562 37.4062 32.6562H45.7188C46.0467 32.6562 46.3125 32.922 46.3125 33.25V35.625H36.8125V33.25ZM32.0625 54.625C30.0951 54.625 28.5 53.0299 28.5 51.0625V46.3125H34.4375V48.0938C34.4375 49.0775 35.235 49.875 36.2188 49.875C37.2025 49.875 38 49.0775 38 48.0938V46.3125H45.125V48.0938C45.125 49.0775 45.9225 49.875 46.9062 49.875C47.89 49.875 48.6875 49.0775 48.6875 48.0938V46.3125H54.625V51.0625C54.625 53.0299 53.0299 54.625 51.0625 54.625H32.0625Z" fill="#FFFDFD"/>
</svg>
