<svg width="119" height="48" viewBox="0 0 119 48" fill="none" xmlns="http://www.w3.org/2000/svg">
<path d="M38.6728 36.6967C40.5924 38.3578 40.8235 41.3036 38.8274 42.872C36.0862 45.0256 32.8935 46.568 29.4633 47.3699C24.532 48.5227 19.3624 48.0861 14.6944 46.1225C10.0263 44.1589 6.09899 40.769 3.47446 36.438C0.849936 32.1069 -0.337298 27.0566 0.0826615 22.0098C0.502621 16.963 2.50825 12.1784 5.81253 8.34063C9.11681 4.5029 13.5504 1.80875 18.4788 0.64372C23.4072 -0.521308 28.5778 -0.0974972 33.2508 1.8545C36.5013 3.21234 39.3951 5.26121 41.7426 7.83832C43.4521 9.71499 42.7373 12.5821 40.5695 13.903C38.4018 15.224 35.6064 14.4614 33.6864 12.8007C32.5063 11.78 31.165 10.9459 29.7074 10.337C26.8244 9.13274 23.6343 8.87126 20.5936 9.59004C17.553 10.3088 14.8176 11.971 12.779 14.3388C10.7404 16.7065 9.50298 19.6584 9.24388 22.7721C8.98478 25.8858 9.71726 29.0016 11.3365 31.6738C12.9557 34.3459 15.3787 36.4373 18.2588 37.6488C21.1388 38.8602 24.3282 39.1296 27.3706 38.4184C28.9088 38.0588 30.3695 37.4579 31.7022 36.6462C33.8703 35.3258 36.7532 35.0356 38.6728 36.6967Z" fill="#4A4AFF"/>
<path d="M22.108 16.986C21.8293 16.8687 21.5213 16.81 21.184 16.81C20.8613 16.81 20.59 16.8687 20.37 16.986C20.1647 17.1033 19.9887 17.2647 19.842 17.47C19.6953 17.6607 19.578 17.8807 19.49 18.13C19.4167 18.3793 19.358 18.6287 19.314 18.878L19.116 20.044H21.58L21.118 22.684H18.698L17.224 31H13.77L15.244 22.684H13.242L13.704 20.044H15.64L15.86 18.922C15.9773 18.2913 16.146 17.6753 16.366 17.074C16.586 16.4727 16.894 15.9447 17.29 15.49C17.7007 15.0207 18.214 14.6467 18.83 14.368C19.446 14.0893 20.2013 13.95 21.096 13.95C21.3893 13.95 21.6827 13.972 21.976 14.016C22.2693 14.0453 22.526 14.0967 22.746 14.17L22.108 16.986Z" fill="#2B2B2B"/>
<path d="M26.3832 21.452C26.7645 20.9387 27.2632 20.528 27.8792 20.22C28.5099 19.912 29.1772 19.758 29.8812 19.758C30.5852 19.758 31.2159 19.8753 31.7732 20.11C32.3452 20.3447 32.8219 20.6747 33.2032 21.1C33.5992 21.5107 33.8999 22.0093 34.1052 22.596C34.3106 23.168 34.4132 23.7913 34.4132 24.466C34.4132 25.4047 34.2592 26.292 33.9512 27.128C33.6579 27.9493 33.2399 28.668 32.6972 29.284C32.1545 29.9 31.5166 30.384 30.7832 30.736C30.0499 31.088 29.2432 31.264 28.3632 31.264C27.5859 31.264 26.8672 31.1027 26.2072 30.78C25.5619 30.4573 25.0706 30.01 24.7332 29.438H24.6892L24.4252 31H21.1692L24.0952 14.368H27.6372L26.3392 21.452H26.3832ZM30.9152 24.928C30.9152 24.268 30.7245 23.718 30.3432 23.278C29.9619 22.8233 29.3972 22.596 28.6492 22.596C28.2092 22.596 27.7985 22.6913 27.4172 22.882C27.0359 23.0727 26.7059 23.3293 26.4272 23.652C26.1632 23.9747 25.9506 24.3487 25.7892 24.774C25.6279 25.1993 25.5472 25.6467 25.5472 26.116C25.5472 26.7907 25.7526 27.348 26.1632 27.788C26.5739 28.2133 27.1385 28.426 27.8572 28.426C28.3265 28.426 28.7446 28.338 29.1112 28.162C29.4925 27.9713 29.8152 27.722 30.0792 27.414C30.3432 27.0913 30.5485 26.7173 30.6952 26.292C30.8419 25.8667 30.9152 25.412 30.9152 24.928Z" fill="#2B2B2B"/>
<path d="M46.5172 23.256C46.5172 23.4613 46.5025 23.6813 46.4732 23.916C46.4585 24.1507 46.4292 24.378 46.3852 24.598L45.6372 28.866C45.5638 29.2473 45.5052 29.636 45.4612 30.032C45.4318 30.428 45.4172 30.7507 45.4172 31H42.2932C42.2932 30.8387 42.3005 30.6553 42.3152 30.45C42.3298 30.23 42.3518 30.0247 42.3812 29.834H42.3372C41.5305 30.7873 40.4158 31.264 38.9932 31.264C38.6118 31.264 38.2158 31.2127 37.8052 31.11C37.4092 31.022 37.0425 30.868 36.7052 30.648C36.3825 30.4133 36.1185 30.1127 35.9132 29.746C35.7078 29.3647 35.6052 28.9027 35.6052 28.36C35.6052 27.48 35.8252 26.7613 36.2652 26.204C36.7052 25.6467 37.2772 25.214 37.9812 24.906C38.6998 24.598 39.5065 24.3853 40.4012 24.268C41.3105 24.1507 42.2198 24.092 43.1292 24.092C43.1585 23.96 43.1732 23.8573 43.1732 23.784C43.1732 23.7107 43.1732 23.6447 43.1732 23.586C43.1732 23.1607 43.0192 22.8527 42.7112 22.662C42.4178 22.4567 41.9998 22.354 41.4572 22.354C40.9585 22.354 40.4525 22.4493 39.9392 22.64C39.4405 22.8307 38.9858 23.08 38.5752 23.388L37.1232 21.364C37.7832 20.836 38.5385 20.4327 39.3892 20.154C40.2545 19.8607 41.1052 19.714 41.9412 19.714C42.6012 19.714 43.2098 19.7873 43.7672 19.934C44.3245 20.066 44.8012 20.2787 45.1972 20.572C45.6078 20.8653 45.9305 21.232 46.1652 21.672C46.3998 22.112 46.5172 22.64 46.5172 23.256ZM42.6232 26.204C42.1832 26.204 41.7358 26.226 41.2812 26.27C40.8265 26.2993 40.4158 26.3727 40.0492 26.49C39.6972 26.6073 39.4038 26.7687 39.1692 26.974C38.9345 27.1793 38.8172 27.4507 38.8172 27.788C38.8172 28.228 38.9638 28.5287 39.2572 28.69C39.5652 28.8367 39.9025 28.91 40.2692 28.91C40.9438 28.91 41.5085 28.7047 41.9632 28.294C42.4178 27.8687 42.7038 27.348 42.8212 26.732L42.9312 26.204H42.6232Z" fill="#A782FF"/>
<path d="M56.356 19.384V22.012H61.288V24.55H56.356V29.5H53.314V16.756H61.702V19.384H56.356Z" fill="#4A4AFF"/>
<path d="M66.4107 17.674C66.4107 17.902 66.3627 18.118 66.2667 18.322C66.1827 18.514 66.0627 18.682 65.9067 18.826C65.7627 18.97 65.5827 19.084 65.3667 19.168C65.1627 19.252 64.9467 19.294 64.7187 19.294C64.2387 19.294 63.8367 19.138 63.5127 18.826C63.1887 18.502 63.0267 18.118 63.0267 17.674C63.0267 17.458 63.0687 17.254 63.1527 17.062C63.2367 16.858 63.3567 16.684 63.5127 16.54C63.6687 16.396 63.8487 16.282 64.0527 16.198C64.2567 16.102 64.4787 16.054 64.7187 16.054C64.9467 16.054 65.1627 16.096 65.3667 16.18C65.5827 16.264 65.7627 16.378 65.9067 16.522C66.0627 16.666 66.1827 16.84 66.2667 17.044C66.3627 17.236 66.4107 17.446 66.4107 17.674ZM63.2427 29.5V20.536H66.1947V29.5H63.2427Z" fill="#4A4AFF"/>
<path d="M74.4189 29.5V24.604C74.4189 24.352 74.3949 24.112 74.3469 23.884C74.3109 23.656 74.2449 23.458 74.1489 23.29C74.0529 23.11 73.9149 22.972 73.7349 22.876C73.5669 22.768 73.3509 22.714 73.0869 22.714C72.8229 22.714 72.5889 22.768 72.3849 22.876C72.1929 22.972 72.0309 23.11 71.8989 23.29C71.7669 23.47 71.6649 23.68 71.5929 23.92C71.5329 24.148 71.5029 24.388 71.5029 24.64V29.5H68.5329V20.536H71.3949V21.778H71.4309C71.5389 21.586 71.6769 21.4 71.8449 21.22C72.0249 21.028 72.2289 20.866 72.4569 20.734C72.6969 20.602 72.9549 20.494 73.2309 20.41C73.5069 20.326 73.8009 20.284 74.1129 20.284C74.7129 20.284 75.2229 20.392 75.6429 20.608C76.0629 20.824 76.3989 21.106 76.6509 21.454C76.9149 21.79 77.1009 22.18 77.2089 22.624C77.3289 23.068 77.3889 23.512 77.3889 23.956V29.5H74.4189Z" fill="#4A4AFF"/>
<path d="M84.9167 25.594H84.5387C84.2147 25.594 83.8847 25.612 83.5487 25.648C83.2247 25.672 82.9307 25.726 82.6667 25.81C82.4147 25.894 82.2047 26.02 82.0367 26.188C81.8687 26.344 81.7847 26.554 81.7847 26.818C81.7847 26.986 81.8207 27.13 81.8927 27.25C81.9767 27.37 82.0787 27.466 82.1987 27.538C82.3187 27.61 82.4567 27.664 82.6127 27.7C82.7687 27.724 82.9187 27.736 83.0627 27.736C83.6627 27.736 84.1187 27.574 84.4307 27.25C84.7547 26.914 84.9167 26.464 84.9167 25.9V25.594ZM79.4987 21.76C80.0267 21.256 80.6387 20.878 81.3347 20.626C82.0427 20.374 82.7626 20.248 83.4947 20.248C84.2506 20.248 84.8867 20.344 85.4027 20.536C85.9307 20.716 86.3567 21.004 86.6807 21.4C87.0047 21.784 87.2387 22.276 87.3827 22.876C87.5387 23.464 87.6167 24.166 87.6167 24.982V29.5H84.9167V28.546H84.8627C84.6347 28.918 84.2867 29.206 83.8187 29.41C83.3627 29.614 82.8647 29.716 82.3247 29.716C81.9647 29.716 81.5927 29.668 81.2087 29.572C80.8247 29.476 80.4706 29.32 80.1467 29.104C79.8347 28.888 79.5767 28.6 79.3727 28.24C79.1686 27.88 79.0667 27.436 79.0667 26.908C79.0667 26.26 79.2407 25.738 79.5887 25.342C79.9487 24.946 80.4047 24.64 80.9567 24.424C81.5207 24.208 82.1447 24.064 82.8287 23.992C83.5126 23.92 84.1786 23.884 84.8267 23.884V23.74C84.8267 23.296 84.6707 22.972 84.3587 22.768C84.0467 22.552 83.6627 22.444 83.2067 22.444C82.7867 22.444 82.3787 22.534 81.9827 22.714C81.5986 22.894 81.2687 23.11 80.9927 23.362L79.4987 21.76Z" fill="#4A4AFF"/>
<path d="M95.706 29.5V24.604C95.706 24.352 95.682 24.112 95.634 23.884C95.598 23.656 95.532 23.458 95.436 23.29C95.34 23.11 95.202 22.972 95.022 22.876C94.854 22.768 94.638 22.714 94.374 22.714C94.11 22.714 93.876 22.768 93.672 22.876C93.48 22.972 93.318 23.11 93.186 23.29C93.054 23.47 92.952 23.68 92.88 23.92C92.82 24.148 92.79 24.388 92.79 24.64V29.5H89.82V20.536H92.682V21.778H92.718C92.826 21.586 92.964 21.4 93.132 21.22C93.312 21.028 93.516 20.866 93.744 20.734C93.984 20.602 94.242 20.494 94.518 20.41C94.794 20.326 95.088 20.284 95.4 20.284C96 20.284 96.51 20.392 96.93 20.608C97.35 20.824 97.686 21.106 97.938 21.454C98.202 21.79 98.388 22.18 98.496 22.624C98.616 23.068 98.676 23.512 98.676 23.956V29.5H95.706Z" fill="#4A4AFF"/>
<path d="M107.086 23.434C106.918 23.218 106.69 23.044 106.402 22.912C106.114 22.78 105.82 22.714 105.52 22.714C105.208 22.714 104.926 22.78 104.674 22.912C104.422 23.032 104.206 23.2 104.026 23.416C103.846 23.62 103.702 23.86 103.594 24.136C103.498 24.412 103.45 24.706 103.45 25.018C103.45 25.33 103.498 25.624 103.594 25.9C103.69 26.176 103.828 26.422 104.008 26.638C104.2 26.842 104.422 27.004 104.674 27.124C104.938 27.244 105.232 27.304 105.556 27.304C105.856 27.304 106.15 27.25 106.438 27.142C106.738 27.022 106.978 26.854 107.158 26.638L108.796 28.636C108.424 28.996 107.944 29.278 107.356 29.482C106.768 29.686 106.144 29.788 105.484 29.788C104.776 29.788 104.116 29.68 103.504 29.464C102.892 29.248 102.358 28.936 101.902 28.528C101.458 28.108 101.104 27.604 100.84 27.016C100.588 26.428 100.462 25.762 100.462 25.018C100.462 24.286 100.588 23.626 100.84 23.038C101.104 22.45 101.458 21.952 101.902 21.544C102.358 21.124 102.892 20.806 103.504 20.59C104.116 20.362 104.77 20.248 105.466 20.248C105.79 20.248 106.108 20.278 106.42 20.338C106.744 20.398 107.05 20.482 107.338 20.59C107.638 20.686 107.908 20.812 108.148 20.968C108.4 21.112 108.616 21.274 108.796 21.454L107.086 23.434Z" fill="#4A4AFF"/>
<path d="M116.138 23.992C116.138 23.524 115.989 23.122 115.688 22.786C115.4 22.45 114.962 22.282 114.374 22.282C114.086 22.282 113.822 22.33 113.582 22.426C113.342 22.51 113.132 22.63 112.952 22.786C112.772 22.942 112.629 23.128 112.521 23.344C112.412 23.548 112.353 23.764 112.34 23.992H116.138ZM118.856 25.126C118.856 25.246 118.856 25.366 118.856 25.486C118.856 25.606 118.851 25.72 118.839 25.828H112.34C112.365 26.08 112.436 26.308 112.556 26.512C112.688 26.716 112.85 26.896 113.042 27.052C113.246 27.196 113.468 27.31 113.708 27.394C113.96 27.478 114.218 27.52 114.482 27.52C114.951 27.52 115.346 27.436 115.67 27.268C115.994 27.088 116.258 26.86 116.462 26.584L118.514 27.88C118.094 28.492 117.536 28.966 116.84 29.302C116.157 29.626 115.358 29.788 114.446 29.788C113.774 29.788 113.138 29.686 112.538 29.482C111.938 29.266 111.41 28.96 110.954 28.564C110.51 28.156 110.156 27.658 109.892 27.07C109.64 26.482 109.514 25.81 109.514 25.054C109.514 24.322 109.64 23.662 109.892 23.074C110.144 22.474 110.486 21.97 110.918 21.562C111.35 21.142 111.86 20.818 112.448 20.59C113.036 20.362 113.673 20.248 114.356 20.248C115.016 20.248 115.622 20.362 116.174 20.59C116.727 20.806 117.2 21.124 117.596 21.544C117.993 21.964 118.298 22.474 118.514 23.074C118.742 23.674 118.856 24.358 118.856 25.126Z" fill="#4A4AFF"/>
</svg>
