<svg width="32" height="23" viewBox="0 0 32 23" fill="none" xmlns="http://www.w3.org/2000/svg">
<path fill-rule="evenodd" clip-rule="evenodd" d="M1.19209e-07 11.0345C1.59167e-07 11.95 0.741046 12.6921 1.65517 12.6921H26.3489L19.8114 19.2392C19.165 19.8866 19.165 20.9361 19.8114 21.5835C20.4578 22.2308 21.5058 22.2308 22.1521 21.5835L31.5152 12.2066C31.8256 11.8957 32 11.4741 32 11.0345C32 10.5949 31.8256 10.1732 31.5152 9.86237L22.1521 0.485503C21.5058 -0.161835 20.4578 -0.161834 19.8114 0.485504C19.165 1.13284 19.165 2.18238 19.8114 2.82972L26.3489 9.37687H1.65517C0.741046 9.37687 7.92515e-08 10.119 1.19209e-07 11.0345Z" fill="white"/>
</svg>
