<svg width="1257" height="451" viewBox="0 0 1257 451" fill="none" xmlns="http://www.w3.org/2000/svg">
<g clip-path="url(#clip0_634_15067)">
<rect width="1257" height="451" rx="27" fill="#6E54FF"/>
<path d="M457 378C433.056 382.859 385.169 400.712 385.169 433.254C385.169 465.797 346.39 476.644 327 478" stroke="#FFFDFD" stroke-width="4" stroke-dasharray="12 12"/>
<path d="M720.069 154.654C633.824 183.862 596.403 323.515 634.421 389.307C677.509 463.826 899.305 436.205 932.229 424.412C960.611 414.262 776.373 345.915 798.399 273.496C822.306 194.816 953.75 182.037 943.931 163.782C933.376 144.212 821.274 120.462 720.069 154.654Z" stroke="#FFFDFD" stroke-opacity="0.17" stroke-miterlimit="10"/>
<path d="M697.035 146.476C598.263 171.285 563.021 335.272 609.436 407.874C663.056 491.848 900.637 446.21 944.827 438.762C976.948 433.285 801.36 348.544 819.095 263.511C838.024 172.819 958.019 146.221 939.389 139.265C925.485 126.943 814.759 116.884 697.035 146.476Z" stroke="#FFFDFD" stroke-opacity="0.17" stroke-miterlimit="10"/>
<path d="M673.999 138.225C562.768 158.817 529.706 346.956 584.519 426.403C648.761 519.651 905.11 469.394 957.491 453.056C990.3 442.814 826.506 351.136 839.859 253.544C853.923 150.839 960.863 110.897 934.914 114.676C915.94 110.166 808.219 113.416 673.999 138.225Z" stroke="#FFFDFD" stroke-opacity="0.17" stroke-miterlimit="10"/>
<path d="M650.962 130.083C527.319 146.513 496.436 358.712 559.463 445.041C634.351 547.636 903.617 480.42 970.016 467.441C1007.28 460.138 851.581 353.856 860.506 243.649C869.684 128.933 966.047 80.2458 930.301 90.1584C907.403 96.493 801.725 110.038 650.962 130.083Z" stroke="#FFFDFD" stroke-opacity="0.17" stroke-miterlimit="10"/>
<path d="M627.952 121.886C491.874 134.245 463.194 370.432 534.48 463.607C620.083 575.53 902.542 471.895 982.638 481.862C1024.14 486.992 876.822 356.594 881.227 233.755C885.816 107.063 969.56 44.0638 925.761 65.6781C898.504 79.0409 795.257 106.716 627.952 121.886Z" stroke="#FFFDFD" stroke-opacity="0.17" stroke-miterlimit="10"/>
<path d="M581.878 105.511C420.974 109.783 396.815 393.799 484.482 500.775C591.537 631.282 904.764 486.664 1007.8 510.468C1056.12 521.622 927.318 361.834 922.614 213.783C917.819 63.0677 974.926 -27.8619 916.649 16.4802C879.572 44.6664 782.268 100.199 581.878 105.511Z" stroke="#FFFDFD" stroke-opacity="0.17" stroke-miterlimit="10"/>
<path d="M535.809 89.1364C349.965 85.4853 330.349 417.148 434.513 537.925C562.997 686.997 907.84 500.738 1033 539.148C1088.57 556.198 977.933 367.146 964.006 193.885C949.965 19.1456 980.067 -99.1304 907.542 -32.6629C860.278 10.6934 769.329 93.8097 535.809 89.1364Z" stroke="#FFFDFD" stroke-opacity="0.17" stroke-miterlimit="10"/>
<path d="M489.737 72.7422C279.114 61.0954 263.995 440.477 384.541 575.091C534.638 742.693 911.464 514.52 1058.19 567.789C1121.26 590.718 1028.61 372.458 1005.42 173.931C982.177 -24.8506 985.113 -170.199 898.455 -81.8253C840.936 -23.1346 756.296 87.4925 489.737 72.7422Z" stroke="#FFFDFD" stroke-opacity="0.17" stroke-miterlimit="10"/>
<path d="M443.67 56.3676C208.13 36.8162 197.645 463.789 334.55 612.241C506.237 798.445 915.46 528.267 1083.38 596.523C1154.17 625.312 1079.35 377.697 1046.84 154.07C1014.42 -68.7725 990.233 -241.066 889.35 -130.913C821.575 -56.8883 743.268 81.2313 443.67 56.3676Z" stroke="#FFFDFD" stroke-opacity="0.17" stroke-miterlimit="10"/>
<path d="M397.598 39.9926C137.141 12.5549 131.635 486.9 284.577 649.373C478.245 853.832 919.68 541.666 1108.58 625.166C1187.16 659.851 1130.1 382.918 1088.22 134.099C1046.7 -112.822 995.371 -312.006 880.263 -180.13C802.209 -90.624 730.166 75.0063 397.598 39.9926Z" stroke="#FFFDFD" stroke-opacity="0.17" stroke-miterlimit="10"/>
<path d="M351.528 23.6C66.0405 -11.2858 65.1916 510.268 234.607 686.559C449.75 909.529 924.041 555.358 1133.79 653.882C1220.22 694.482 1181.29 388.158 1129.64 114.256C1079.42 -156.781 1000.51 -382.763 871.156 -229.181C782.846 -124.323 716.952 69.3113 351.528 23.6Z" stroke="#FFFDFD" stroke-opacity="0.17" stroke-miterlimit="10"/>
<path d="M305.454 7.22477C-4.95023 -35.7117 -1.23338 533.616 184.633 723.708C421.228 965.19 928.535 568.922 1158.98 682.561C1253.33 729.094 1231.96 393.434 1171.03 94.412C1111.37 -200.685 1005.3 -453.721 862.067 -278.252C763.203 -158.15 703.871 62.8669 305.454 7.22477Z" stroke="#FFFDFD" stroke-opacity="0.17" stroke-miterlimit="10"/>
<path d="M852.959 -327.432C744.115 -191.685 690.771 56.4224 259.385 -9.15059C-75.9597 -60.1376 -67.677 556.964 134.64 760.876C392.733 1020.98 933.079 582.504 1184.17 711.24C1387.23 815.368 1171.26 -724.43 852.959 -327.432Z" stroke="#FFFDFD" stroke-opacity="0.17" stroke-miterlimit="10"/>
</g>
<defs>
<clipPath id="clip0_634_15067">
<rect width="1257" height="451" rx="27" fill="white"/>
</clipPath>
</defs>
</svg>
